HIERARCHY
ROOT hip
{
	OFFSET 0.000000 0.000000 0.000000 
	CHANNELS 6 Xposition Yposition Zposition Xrotation Zrotation Yrotation
	JOINT abdomen
	{
		OFFSET 0.000000 3.402643 0.000000 
		CHANNELS 3 Xrotation Zrotation Yrotation
		JOINT chest
		{
			OFFSET 0.000000 8.438565 -0.680529 
			CHANNELS 3 Xrotation Zrotation Yrotation
			JOINT neck
			{
				OFFSET 0.000000 10.207942 -0.272212 
				CHANNELS 3 Xrotation Zrotation Yrotation
				JOINT head
				{
					OFFSET 0.000000 3.130431 0.000000 
					CHANNELS 3 Xrotation Zrotation Yrotation
					End Site
					{
						OFFSET 0.000000 3.130435 0.000000 
					}
				}
			}
			JOINT lCollar
			{
				OFFSET 3.470700 6.669187 -0.816635 
				CHANNELS 3 Yrotation Zrotation Xrotation
				JOINT lShldr
				{
					OFFSET 3.198488 0.000000 0.000000 
					CHANNELS 3 Zrotation Yrotation Xrotation
					JOINT lForeArm
					{
						OFFSET 10.139888 0.000000 0.000000 
						CHANNELS 3 Yrotation Zrotation Xrotation
						JOINT lHand
						{
							OFFSET 8.370511 0.000000 0.000000 
							CHANNELS 3 Zrotation Yrotation Xrotation
							End Site
							{
								OFFSET 4.083176 0.000000 0.000000 
							}
						}
					}
				}
			}
			JOINT rCollar
			{
				OFFSET -3.470700 6.669187 -0.816635 
				CHANNELS 3 Yrotation Zrotation Xrotation
				JOINT rShldr
				{
					OFFSET -3.198488 0.000000 0.000000 
					CHANNELS 3 Zrotation Yrotation Xrotation
					JOINT rForeArm
					{
						OFFSET -10.139888 0.000000 0.000000 
						CHANNELS 3 Yrotation Zrotation Xrotation
						JOINT rHand
						{
							OFFSET -8.370511 0.000000 0.000000 
							CHANNELS 3 Zrotation Yrotation Xrotation
							End Site
							{
								OFFSET -4.083176 0.000000 0.000000 
							}
						}
					}
				}
			}
		}
	}
	JOINT lThigh
	{
		OFFSET 5.308129 -1.633274 1.361059 
		CHANNELS 3 Xrotation Zrotation Yrotation
		JOINT lShin
		{
			OFFSET -2.041588 -20.007561 0.000000 
			CHANNELS 3 Xrotation Zrotation Yrotation
			JOINT lFoot
			{
				OFFSET 0.000000 -19.190928 -1.224953 
				CHANNELS 3 Xrotation Yrotation Zrotation
				End Site
				{
					OFFSET 0.000000 -2.449906 4.627600 
				}
			}
		}
	}
	JOINT rThigh
	{
		OFFSET -5.308129 -1.633274 1.361059 
		CHANNELS 3 Xrotation Zrotation Yrotation
		JOINT rShin
		{
			OFFSET 2.041588 -20.007561 0.000000 
			CHANNELS 3 Xrotation Zrotation Yrotation
			JOINT rFoot
			{
				OFFSET 0.000000 -19.190928 -1.224953 
				CHANNELS 3 Xrotation Yrotation Zrotation
				End Site
				{
					OFFSET 0.000000 -2.449906 4.627600 
				}
			}
		}
	}
}
MOTION
Frames: 15
Frame Time: 0.016667
-0.348865 49.718754 -0.631718 -12.491632 -0.205073 0.390623 33.213169 -2.499058 -1.574177 -16.298119 8.046593 -0.482006 -0.016084 -2.370769 2.511656 15.608879 -2.263665 2.384423 -2.130070 -6.796513 -0.009690 -74.367561 9.326988 4.612885 -40.829739 4.444180 60.446507 -16.114813 16.160084 -4.606621 9.501498 -2.706691 -0.009621 71.355904 -16.999926 3.551068 41.706738 -3.699769 45.702145 0.528148 -2.275204 -0.031080 -0.145435 8.341279 -3.202788 30.827665 -1.089993 -2.593847 -2.439275 3.890285 -11.926700 0.176439 -9.588336 0.340820 31.679213 1.005181 2.624280 -3.631316 -10.701129 11.268110 
-0.346639 49.716892 -0.624615 -12.491552 -0.214840 0.351560 33.212902 -2.489296 -1.574175 -16.346363 7.978236 -0.482017 0.057942 -2.224392 2.531180 15.593018 -2.380700 2.414083 -2.159356 -6.737914 -0.009691 -74.421631 9.423347 4.528932 -40.822926 4.434459 60.358559 -15.994760 16.188238 -4.576441 9.521040 -2.638334 -0.009621 71.371696 -17.050064 3.520091 41.718132 -3.696283 45.631554 0.547738 -2.353315 -0.032614 -0.145434 8.341276 -3.202788 30.837429 -1.090005 -2.594342 -2.466066 3.941665 -11.937747 0.156732 -9.573346 0.411078 31.699318 1.010325 2.607369 -3.572217 -10.704928 11.269919 
-0.342137 49.725426 -0.620185 -12.452219 -0.175778 0.341795 33.143959 -2.499081 -1.554238 -16.313372 7.861075 -0.462685 -0.013027 -2.038980 2.560100 15.683192 -2.517225 2.453523 -2.227704 -6.669543 -0.009692 -74.420425 9.434586 4.451017 -40.827068 4.445199 60.412277 -16.096838 16.067041 -4.575182 9.501525 -2.550440 -0.009622 71.351494 -17.045885 3.535115 41.754246 -3.693401 45.604748 0.577118 -2.450950 -0.034814 -0.136026 8.284335 -3.235748 30.739683 -1.104909 -2.583488 -2.367069 3.994868 -11.926419 0.126956 -9.622037 0.398350 31.650232 1.020103 2.607320 -3.515626 -10.684468 11.280247 
-0.337636 49.733959 -0.615754 -12.403137 -0.136716 0.332030 33.085201 -2.508855 -1.544482 -16.280464 7.743911 -0.443341 -0.074483 -1.863332 2.589062 15.762959 -2.653720 2.502291 -2.305817 -6.601170 -0.009693 -74.428909 9.449150 4.362081 -40.822739 4.451114 60.466000 -16.188744 15.946689 -4.568115 9.482009 -2.452781 -0.009623 71.331306 -17.041693 3.550137 41.803001 -3.691630 45.573036 0.606503 -2.548582 -0.037113 -0.126581 8.226815 -3.258890 30.641731 -1.114616 -2.580999 -2.302968 4.028296 -11.923680 0.127232 -9.679343 0.374968 31.582241 1.020235 2.594408 -3.521854 -10.658214 11.291888 
-0.336223 49.736664 -0.615996 -12.393314 -0.126951 0.332030 33.087021 -2.528344 -1.574181 -16.283678 7.812247 -0.462689 -0.112600 -1.775391 2.686677 15.796170 -2.897408 2.600750 -2.305830 -6.679295 -0.009692 -74.428162 9.455219 4.302995 -40.834023 4.447764 60.556026 -16.147469 15.940418 -4.554771 9.501534 -2.501612 -0.009622 71.342644 -17.035727 3.504114 41.778931 -3.693955 45.648495 0.645520 -2.421612 -0.037403 -0.116859 8.216921 -3.259494 30.602673 -1.114572 -2.579008 -2.300977 4.024778 -11.935456 0.137088 -9.698091 0.363780 31.562714 1.020223 2.593427 -3.508781 -10.641249 11.288332 
-0.334810 49.739361 -0.616237 -12.383492 -0.117186 0.332031 33.088863 -2.547832 -1.603452 -16.296787 7.890349 -0.482029 -0.150892 -1.697214 2.784295 15.828544 -3.141049 2.699287 -2.315608 -6.747653 -0.009690 -74.437065 9.468843 4.254305 -40.848576 4.444103 60.632626 -16.106195 15.934134 -4.541438 9.530821 -2.550445 -0.009621 71.363045 -17.042566 3.448917 41.760082 -3.697063 45.711185 0.694307 -2.294636 -0.037910 -0.116933 8.207725 -3.269900 30.563301 -1.124341 -2.579489 -2.313903 4.048436 -11.936855 0.137183 -9.716407 0.342872 31.542698 1.011936 2.609525 -3.498242 -10.650804 11.295478 
-0.332082 49.742428 -0.615321 -12.354024 -0.087889 0.332031 33.050346 -2.567355 -1.603454 -16.286606 7.841523 -0.482035 -0.182450 -1.521589 2.823085 15.893567 -3.345737 2.758328 -2.354662 -6.698818 -0.009691 -74.445724 9.489283 4.217612 -40.863041 4.447566 60.654942 -16.150612 15.855222 -4.531273 9.521058 -2.530912 -0.009622 71.363998 -17.033314 3.445934 41.761932 -3.703147 45.723972 0.635678 -2.314203 -0.035784 -0.116297 8.177355 -3.252087 30.524490 -1.104864 -2.582317 -2.291739 4.042546 -11.949456 0.108096 -9.755251 0.330939 31.532402 1.005273 2.626705 -3.501187 -10.612293 11.301209 
-0.329356 49.745491 -0.614405 -12.314781 -0.058593 0.322265 33.012550 -2.596628 -1.613212 -16.275169 7.802472 -0.472365 -0.224024 -1.355729 2.861913 15.948531 -3.560184 2.807630 -2.403481 -6.649981 -0.009691 -74.454391 9.509709 4.180912 -40.886047 4.455801 60.677258 -16.194256 15.766953 -4.521036 9.511298 -2.501614 -0.009622 71.374954 -17.027622 3.430792 41.769405 -3.703458 45.731876 0.586822 -2.333762 -0.034015 -0.126216 8.148804 -3.263621 30.475359 -1.114625 -2.582299 -2.276849 4.068078 -11.938844 0.078153 -9.776294 0.349617 31.522945 1.020186 2.610700 -3.497431 -10.592213 11.309050 
-0.329743 49.747658 -0.614293 -12.304919 -0.039062 0.341797 33.013988 -2.616127 -1.632725 -16.257143 7.821991 -0.482038 -0.269385 -1.277680 2.881449 15.979619 -3.696676 2.827722 -2.393718 -6.659749 -0.009691 -74.446075 9.473942 4.162775 -40.867004 4.457454 60.756382 -16.205265 15.652884 -4.492219 9.491767 -2.501610 -0.009623 71.347420 -16.989464 3.489180 41.765251 -3.697803 45.698399 0.577054 -2.343533 -0.033717 -0.126320 8.140162 -3.283853 30.446423 -1.114595 -2.571101 -2.254005 4.044509 -11.938083 0.078288 -9.804347 0.328117 31.503418 1.020168 2.609720 -3.504048 -10.596249 11.297618 
-0.330130 49.749821 -0.614180 -12.295107 -0.029296 0.361328 33.015446 -2.635624 -1.652237 -16.229357 7.841511 -0.491709 -0.315395 -1.209376 2.910744 16.020378 -3.833164 2.847838 -2.383954 -6.669515 -0.009691 -74.447441 9.441464 4.133606 -40.856571 4.463910 60.836277 -16.204374 15.551694 -4.454323 9.472236 -2.501607 -0.009623 71.309914 -16.947655 3.556825 41.768120 -3.698970 45.666172 0.577054 -2.343533 -0.033717 -0.126427 8.131518 -3.304084 30.417171 -1.124375 -2.562361 -2.242716 4.016500 -11.917497 0.078343 -9.812906 0.307834 31.493299 1.020163 2.618934 -3.495193 -10.587571 11.291306 
-0.328709 49.752045 -0.610340 -12.285276 -0.019531 0.351562 32.996475 -2.655147 -1.652237 -16.188950 7.841522 -0.482035 -0.305911 -1.248473 2.832635 15.940388 -3.765109 2.778990 -2.383955 -6.679281 -0.009691 -74.419456 9.410212 4.170898 -40.859394 4.462850 60.871296 -16.226437 15.538073 -4.465964 9.442936 -2.511368 -0.009624 71.313156 -16.913921 3.566439 41.761120 -3.692145 45.665546 0.586868 -2.411883 -0.034826 -0.116745 8.111867 -3.305274 30.397648 -1.124354 -2.561366 -2.210064 4.008197 -11.930938 0.078429 -9.832998 0.316436 31.473856 1.029961 2.610805 -3.481211 -10.591295 11.310932 
-0.327289 49.754265 -0.606500 -12.275506 -0.019531 0.341797 32.976776 -2.664922 -1.642483 -16.148623 7.851298 -0.472360 -0.286774 -1.287563 2.764290 15.868908 -3.706767 2.720525 -2.393723 -6.689045 -0.009691 -74.401146 9.382224 4.197154 -40.870781 4.466534 60.906307 -16.236542 15.537311 -4.468581 9.413636 -2.530894 -0.009625 71.317543 -16.867950 3.582350 41.761120 -3.692145 45.665546 0.606460 -2.480227 -0.036381 -0.106994 8.101406 -3.296062 30.368345 -1.124321 -2.559872 -2.177267 3.994190 -11.936835 0.078470 -9.843335 0.325655 31.454329 1.029944 2.609822 -3.462356 -10.600061 11.297942 
-0.327558 49.757271 -0.607234 -12.246217 -0.019531 0.361328 32.958893 -2.674644 -1.671748 -16.112764 7.909868 -0.491699 -0.243189 -1.502395 2.569012 15.671628 -3.414737 2.494535 -2.325372 -6.737885 -0.009690 -74.395073 9.305325 4.216668 -40.813076 4.469511 60.926060 -16.227449 15.424792 -4.434422 9.442927 -2.569962 -0.009624 71.310043 -16.836876 3.613544 41.750629 -3.681224 45.579178 0.596740 -2.568119 -0.036885 -0.136309 8.112710 -3.315032 30.348818 -1.124301 -2.558876 -2.166903 3.991684 -11.937727 0.068618 -9.824533 0.336838 31.425392 1.029921 2.598645 -3.449086 -10.611406 11.303936 
-0.327827 49.760273 -0.607966 -12.216988 -0.029296 0.371094 32.930794 -2.684379 -1.691715 -16.086710 7.968435 -0.512386 -0.207613 -1.717288 2.364268 15.471120 -3.132292 2.278393 -2.266785 -6.776958 -0.009690 -74.388748 9.235235 4.249753 -40.767651 4.470582 60.940483 -16.205769 15.315748 -4.388661 9.481984 -2.599265 -0.009622 71.303490 -16.796537 3.644562 41.741581 -3.682863 45.498344 0.587021 -2.656011 -0.037360 -0.165600 8.123359 -3.324187 30.319206 -1.134078 -2.559831 -2.138929 3.999854 -11.933777 0.058794 -9.816065 0.357250 31.396101 1.029894 2.597171 -3.436347 -10.619397 11.302572 
-0.328453 49.759670 -0.603952 -12.216992 -0.029296 0.380859 32.930626 -2.694154 -1.681962 -16.053745 7.861042 -0.491706 -0.101678 -1.942351 1.846628 15.162900 -2.645238 1.759545 -2.237478 -6.718369 -0.009691 -74.351974 9.181752 4.292680 -40.765079 4.464515 60.961304 -16.345146 15.246264 -4.417903 9.452706 -2.491838 -0.009624 71.266075 -16.754564 3.714889 41.735310 -3.677572 45.444839 0.518646 -2.753706 -0.035089 -0.165634 8.123914 -3.334013 30.329643 -1.124279 -2.548174 -2.135051 3.981646 -11.941374 0.058790 -9.816663 0.367083 31.396101 1.029895 2.597171 -3.415593 -10.635126 11.307687 
